<svg xmlns="http://www.w3.org/2000/svg" version="1.1" xmlns:xlink="http://www.w3.org/1999/xlink" xmlns:svgjs="http://svgjs.dev/svgjs" width="128" height="128" viewBox="0 0 128 128"><g transform="matrix(0.8046875,0,0,0.8046875,12.333870967741937,12.333870967741937)"><svg viewBox="0 0 155 155" data-background-color="#ffffff" preserveAspectRatio="xMidYMid meet" height="128" width="128" xmlns="http://www.w3.org/2000/svg" xmlns:xlink="http://www.w3.org/1999/xlink"><g id="tight-bounds" transform="matrix(1,0,0,1,0.25,0.25)"><svg viewBox="0 0 154.5 154.5" height="154.5" width="154.5"><g><svg></svg></g><g><svg viewBox="0 0 154.5 154.5" height="154.5" width="154.5"><g transform="matrix(1,0,0,1,47.28604390243903,43.83165)"><svg viewBox="0 0 59.92791219512194 66.8367" height="66.8367" width="59.92791219512194"><g><svg viewBox="0 0 59.92791219512194 66.8367" height="66.8367" width="59.92791219512194"><g><svg viewBox="0 0 59.92791219512194 66.8367" height="66.8367" width="59.92791219512194"><g id="textblocktransform"><svg viewBox="0 0 59.92791219512194 66.8367" height="66.8367" width="59.92791219512194" id="textblock"><g><svg viewBox="0 0 59.92791219512194 66.8367" height="66.8367" width="59.92791219512194"><g transform="matrix(1,0,0,1,0,0)"><svg width="59.92791219512194" viewBox="-2.5 -40.05 39.6 44.05" height="66.8367" data-palette-color="#fbeaab"><path d="M23.3-37.05L34.1-37.05 34.1-35.8Q33.1-36.1 32.2-36.1L32.2-36.1Q30.95-36.1 30.18-35.55 29.4-35 29.4-34.05L29.4-34.05 29.4 1 28.25 1 6.15-33.35 6.2-3Q6.2-2.05 7.13-1.5 8.05-0.95 9.4-0.95L9.4-0.95Q10.45-0.95 11.4-1.25L11.4-1.25 11.4 0 0.5 0 0.5-1.25Q1.45-0.95 2.4-0.95L2.4-0.95Q3.6-0.95 4.33-1.5 5.05-2.05 5.05-3L5.05-3 5.05-34Q5.05-34.95 4.3-35.5 3.55-36.05 2.35-36.05L2.35-36.05Q1.5-36.05 0.5-35.75L0.5-35.75 0.5-37 8.35-37 28.25-6.85 28.25-34.05Q28.25-35 27.4-35.55 26.55-36.1 25.25-36.1L25.25-36.1Q24.25-36.1 23.3-35.8L23.3-35.8 23.3-37.05Z" opacity="1" transform="matrix(1,0,0,1,0,0)" fill="#000000" class="wordmark-text-0" data-fill-palette-color="primary" id="text-0"></path></svg></g></svg></g></svg></g></svg></g></svg></g></svg></g><g><path d="M0 154.5v-154.5h154.5v154.5zM149.173 149.173v-143.846h-143.846v143.846z" fill="#000000" fill-rule="nonzero" stroke="none" stroke-width="1" stroke-linecap="butt" stroke-linejoin="miter" stroke-miterlimit="10" stroke-dasharray="" stroke-dashoffset="0" font-family="none" font-weight="none" font-size="none" text-anchor="none" style="mix-blend-mode: normal" data-fill-palette-color="tertiary"></path></g></svg></g><defs><mask><rect width="154.5" height="154.5" fill="white"></rect><g transform="matrix(1,0,0,1,47.28604390243903,43.83165)" id="clone"><svg viewBox="0 0 59.92791219512194 66.8367" height="66.8367" width="59.92791219512194"><g><svg viewBox="0 0 59.92791219512194 66.8367" height="66.8367" width="59.92791219512194"><g><svg viewBox="0 0 59.92791219512194 66.8367" height="66.8367" width="59.92791219512194"><g id="SvgjsG1609"><svg viewBox="0 0 59.92791219512194 66.8367" height="66.8367" width="59.92791219512194" id="SvgjsSvg1608"><g><svg viewBox="0 0 59.92791219512194 66.8367" height="66.8367" width="59.92791219512194"><g transform="matrix(1,0,0,1,0,0)"><svg width="59.92791219512194" viewBox="-2.5 -40.05 39.6 44.05" height="66.8367" data-palette-color="#fbeaab"><path d="M23.3-37.05L34.1-37.05 34.1-35.8Q33.1-36.1 32.2-36.1L32.2-36.1Q30.95-36.1 30.18-35.55 29.4-35 29.4-34.05L29.4-34.05 29.4 1 28.25 1 6.15-33.35 6.2-3Q6.2-2.05 7.13-1.5 8.05-0.95 9.4-0.95L9.4-0.95Q10.45-0.95 11.4-1.25L11.4-1.25 11.4 0 0.5 0 0.5-1.25Q1.45-0.95 2.4-0.95L2.4-0.95Q3.6-0.95 4.33-1.5 5.05-2.05 5.05-3L5.05-3 5.05-34Q5.05-34.95 4.3-35.5 3.55-36.05 2.35-36.05L2.35-36.05Q1.5-36.05 0.5-35.75L0.5-35.75 0.5-37 8.35-37 28.25-6.85 28.25-34.05Q28.25-35 27.4-35.55 26.55-36.1 25.25-36.1L25.25-36.1Q24.25-36.1 23.3-35.8L23.3-35.8 23.3-37.05Z" opacity="1" transform="matrix(1,0,0,1,0,0)" fill="#000000" class="wordmark-text-0" data-fill-palette-color="primary" id="SvgjsPath1607" stroke-width="5" stroke="black" stroke-linejoin="round"></path></svg></g></svg></g></svg></g></svg></g></svg></g></svg></g></mask></defs></svg><rect width="154.5" height="154.5" fill="none" stroke="none" visibility="hidden"></rect></g></svg></g></svg>